<?xml version="1.0" encoding="UTF-8"?>
<!DOCTYPE svg PUBLIC "-//W3C//DTD SVG 1.1//EN" "http://www.w3.org/Graphics/SVG/1.1/DTD/svg11.dtd">
<!-- Creator: CorelDRAW 2017 -->
<svg xmlns="http://www.w3.org/2000/svg" xml:space="preserve" width="17.1547mm" height="21.3434mm" version="1.1" style="shape-rendering:geometricPrecision; text-rendering:geometricPrecision; image-rendering:optimizeQuality; fill-rule:evenodd; clip-rule:evenodd"
viewBox="0 0 44.66 55.56"
 xmlns:xlink="http://www.w3.org/1999/xlink">
 <defs>
  <style type="text/css">
   <![CDATA[
    .fil0 {fill:#5B5B5B}
    .fil1 {fill:#E31E24}
   ]]>
  </style>
 </defs>
 <g id="Warstwa_x0020_1">
  <metadata id="CorelCorpID_0Corel-Layer"/>
  <g id="_3013424563968">
   <path class="fil0" d="M0.13 6.65c0.42,0.64 1.12,1.02 1.99,1.02 1.02,0.01 2.09,-0.61 2.06,-1.69 0,-0.77 -0.48,-1.43 -1.47,-1.73 -0.13,-0.04 -0.24,-0.07 -0.33,-0.09 -0.24,-0.07 -0.42,-0.12 -0.54,-0.17 -0.24,-0.09 -0.38,-0.22 -0.38,-0.46 0,-0.31 0.27,-0.52 0.73,-0.52 0.44,0 0.7,0.15 0.97,0.46 0.05,0.06 0.1,0.09 0.14,0.09 0.03,0 0.07,-0.02 0.12,-0.05l0.52 -0.43c0.06,-0.05 0.09,-0.09 0.09,-0.13 0,-0.04 -0.02,-0.09 -0.07,-0.14 -0.2,-0.24 -0.44,-0.45 -0.73,-0.62 -0.3,-0.17 -0.65,-0.26 -1.06,-0.26 -1.14,-0.02 -1.94,0.82 -1.92,1.56 0.01,0.95 0.5,1.41 1.69,1.78 0.17,0.05 0.27,0.08 0.3,0.09 0.19,0.06 0.34,0.1 0.43,0.14 0.19,0.08 0.3,0.21 0.3,0.46 0.01,0.37 -0.51,0.65 -0.94,0.64 -0.49,0 -0.79,-0.25 -1.07,-0.64 -0.05,-0.07 -0.1,-0.1 -0.16,-0.1 -0.04,0 -0.07,0.01 -0.09,0.04l-0.56 0.42c-0.05,0.05 -0.08,0.1 -0.08,0.16 0,0.05 0.02,0.1 0.07,0.18zm8.52 -0.58c-0.4,0.31 -0.8,0.46 -1.21,0.46 -0.91,0.02 -1.68,-0.76 -1.66,-1.74 -0.02,-0.98 0.8,-1.76 1.65,-1.74 0.43,0 0.83,0.13 1.23,0.44 0.03,0.02 0.06,0.03 0.1,0.03 0.05,0 0.08,-0.02 0.1,-0.05l0.45 -0.69c0.01,-0.02 0.02,-0.05 0.02,-0.08 0,-0.04 -0.02,-0.08 -0.06,-0.12 -0.54,-0.44 -1.12,-0.66 -1.85,-0.66 -0.51,0 -0.98,0.13 -1.42,0.38 -0.44,0.25 -0.78,0.6 -1.04,1.04 -0.26,0.44 -0.39,0.92 -0.39,1.44 0,0.54 0.13,1.03 0.39,1.47 0.26,0.44 0.6,0.79 1.05,1.04 0.44,0.25 0.92,0.38 1.44,0.38 0.33,0 0.66,-0.06 0.99,-0.2 0.33,-0.13 0.6,-0.29 0.84,-0.49 0.05,-0.05 0.08,-0.09 0.08,-0.13 0,-0.04 -0.01,-0.08 -0.05,-0.12l-0.45 -0.66c-0.02,-0.03 -0.05,-0.05 -0.1,-0.05 -0.04,0 -0.08,0.01 -0.11,0.04zm1.29 1.32c0,0.12 0.06,0.18 0.17,0.18l0.9 0c0.12,0 0.18,-0.06 0.18,-0.18l0 -3.06c0,-0.84 0.53,-1.25 1.09,-1.25 0.38,0 0.68,0.15 0.98,0.36 0.05,0.04 0.1,0.06 0.14,0.06 0.05,0 0.09,-0.02 0.12,-0.07l0.41 -0.58c0.03,-0.04 0.05,-0.08 0.05,-0.12 0,-0.05 -0.03,-0.11 -0.1,-0.18 -0.17,-0.14 -0.38,-0.28 -0.63,-0.41 -0.25,-0.13 -0.53,-0.2 -0.83,-0.2 -0.55,0 -1.03,0.27 -1.32,0.75l-0.09 -0.48c-0.03,-0.18 -0.12,-0.21 -0.27,-0.21l-0.63 0c-0.11,0 -0.17,0.06 -0.17,0.19l0 5.21zm8.1 -2.29c0.02,0.97 -0.74,1.37 -1.16,1.36 -0.74,0 -1.24,-0.51 -1.26,-1.22l0 -3.06c0,-0.12 -0.06,-0.19 -0.18,-0.19l-0.88 0c-0.12,0 -0.18,0.06 -0.18,0.19l0 3.09c0,0.55 0.11,1.01 0.33,1.36 0.22,0.36 0.49,0.61 0.82,0.77 0.33,0.16 0.66,0.24 1.02,0.24 0.72,0 1.26,-0.27 1.63,-0.81l0.12 0.54c0.02,0.12 0.13,0.22 0.26,0.22l0.58 0c0.12,0 0.18,-0.06 0.18,-0.19l0 -5.21c0,-0.12 -0.06,-0.19 -0.18,-0.19l-0.9 0c-0.12,0 -0.19,0.06 -0.19,0.19l0 2.92zm3.38 -0.81c-0.01,-0.77 0.64,-1.17 1.14,-1.16 0.66,-0.01 1.09,0.6 1.08,1.15l0 3.11c0,0.12 0.06,0.18 0.18,0.18l0.89 0c0.11,0 0.17,-0.06 0.17,-0.18l0 -3.15c-0.01,-0.6 0.54,-1.12 1.13,-1.11 0.68,-0.01 1.12,0.59 1.11,1.17l0 3.09c0,0.12 0.06,0.19 0.18,0.19l0.88 0c0.12,0 0.18,-0.06 0.18,-0.19l0 -3.09c0.01,-1.29 -0.72,-2.37 -2.12,-2.35 -0.42,0 -0.77,0.08 -1.04,0.25 -0.27,0.17 -0.51,0.41 -0.73,0.73 -0.34,-0.67 -0.87,-0.97 -1.61,-0.97 -0.63,0 -1.18,0.28 -1.59,0.79l-0.06 -0.52c-0.02,-0.12 -0.13,-0.22 -0.25,-0.22l-0.62 0c-0.12,0 -0.18,0.06 -0.18,0.19l0 5.21c0,0.12 0.06,0.19 0.18,0.19l0.9 0c0.13,0 0.19,-0.06 0.19,-0.19l0 -3.1zm7.76 3.1c0,0.12 0.06,0.18 0.18,0.18l0.75 0c0.15,0 0.21,-0.09 0.24,-0.24l0.09 -0.41c0.48,0.48 1.09,0.75 1.71,0.75 1.51,0.03 2.74,-1.22 2.72,-2.86 0.03,-1.57 -1.14,-2.9 -2.71,-2.87 -0.66,0 -1.26,0.26 -1.73,0.71l0 -2.1c0,-0.12 -0.06,-0.18 -0.17,-0.18l-0.92 0c-0.12,0 -0.18,0.06 -0.18,0.18l0 6.84zm1.18 -2.59c-0.02,-0.95 0.8,-1.77 1.73,-1.75 0.92,-0.02 1.62,0.81 1.6,1.75 0.01,0.95 -0.67,1.76 -1.61,1.74 -0.91,0.02 -1.74,-0.79 -1.72,-1.74zm5.16 -3.77c0,0.16 0.09,0.25 0.27,0.25l0.76 0c0.17,0 0.25,-0.06 0.25,-0.25l0 -0.76c0,-0.18 -0.08,-0.28 -0.25,-0.28l-0.76 0c-0.18,0 -0.27,0.09 -0.27,0.28l0 0.76zm0.03 6.36c0,0.12 0.06,0.18 0.17,0.18l0.93 0c0.11,0 0.17,-0.06 0.17,-0.18l0 -5.23c0,-0.11 -0.06,-0.18 -0.17,-0.18l-0.93 0c-0.1,0 -0.17,0.06 -0.17,0.18l0 5.23zm3.85 -5.37l0 -1.2c0,-0.11 -0.05,-0.2 -0.13,-0.2 -0.01,0 -0.03,0 -0.05,0.01l-0.89 0.26c-0.14,0.04 -0.18,0.08 -0.18,0.21l0 0.92 -0.5 0c-0.1,0 -0.19,0.07 -0.19,0.21l0 0.71c0,0.12 0.1,0.19 0.19,0.19l0.5 0 0 2.86c0,0.99 0.73,1.62 1.75,1.62 0.22,0 0.34,-0.07 0.34,-0.22l0 -0.62c0,-0.12 -0.02,-0.23 -0.22,-0.24l-0.14 -0.01c-0.35,-0.02 -0.47,-0.26 -0.47,-0.66l0 -2.73 0.63 0c0.11,0 0.2,-0.07 0.2,-0.19l0 -0.73c0,-0.13 -0.06,-0.19 -0.19,-0.19l-0.65 0zm1.19 4.62c0.42,0.64 1.12,1.02 1.99,1.02 1.02,0.01 2.09,-0.61 2.06,-1.69 0,-0.77 -0.48,-1.43 -1.47,-1.73 -0.13,-0.04 -0.24,-0.07 -0.33,-0.09 -0.24,-0.07 -0.42,-0.12 -0.54,-0.17 -0.24,-0.09 -0.38,-0.22 -0.38,-0.46 0,-0.31 0.27,-0.52 0.73,-0.52 0.44,0 0.7,0.15 0.97,0.46 0.05,0.06 0.1,0.09 0.14,0.09 0.03,0 0.07,-0.02 0.12,-0.05l0.52 -0.43c0.06,-0.05 0.09,-0.09 0.09,-0.13 0,-0.04 -0.02,-0.09 -0.07,-0.14 -0.2,-0.24 -0.44,-0.45 -0.73,-0.62 -0.3,-0.17 -0.65,-0.26 -1.06,-0.26 -1.14,-0.02 -1.94,0.82 -1.92,1.56 0.01,0.95 0.5,1.41 1.69,1.78 0.17,0.05 0.27,0.08 0.3,0.09 0.19,0.06 0.34,0.1 0.43,0.14 0.19,0.08 0.3,0.21 0.3,0.46 0.01,0.37 -0.51,0.65 -0.94,0.64 -0.49,0 -0.79,-0.25 -1.07,-0.64 -0.05,-0.07 -0.1,-0.1 -0.16,-0.1 -0.04,0 -0.07,0.01 -0.09,0.04l-0.56 0.42c-0.05,0.05 -0.08,0.1 -0.08,0.16 0,0.05 0.02,0.1 0.07,0.18z"/>
   <path class="fil1" d="M11.99 18.72c0.95,0 1.71,0.77 1.71,1.71 0,0.95 -0.77,1.71 -1.71,1.71 -0.95,0 -1.71,-0.77 -1.71,-1.71 0,-0.95 0.77,-1.71 1.71,-1.71z"/>
   <path class="fil1" d="M11.99 28.58c0.47,0 0.86,0.38 0.86,0.86 0,0.47 -0.38,0.86 -0.86,0.86 -0.47,0 -0.86,-0.38 -0.86,-0.86 0,-0.47 0.38,-0.86 0.86,-0.86z"/>
   <path class="fil1" d="M11.99 36.71c0.95,0 1.71,0.77 1.71,1.71 0,0.95 -0.77,1.71 -1.71,1.71 -0.95,0 -1.71,-0.77 -1.71,-1.71 0,-0.95 0.77,-1.71 1.71,-1.71z"/>
   <path class="fil1" d="M11.99 46.99c0.95,0 1.71,0.77 1.71,1.71 0,0.95 -0.77,1.71 -1.71,1.71 -0.95,0 -1.71,-0.77 -1.71,-1.71 0,-0.95 0.77,-1.71 1.71,-1.71z"/>
   <path class="fil1" d="M11.99 52.13c0.95,0 1.71,0.77 1.71,1.71 0,0.95 -0.77,1.71 -1.71,1.71 -0.95,0 -1.71,-0.77 -1.71,-1.71 0,-0.95 0.77,-1.71 1.71,-1.71z"/>
   <path class="fil1" d="M1.71 18.72c0.95,0 1.71,0.77 1.71,1.71 0,0.95 -0.77,1.71 -1.71,1.71 -0.95,0 -1.71,-0.77 -1.71,-1.71 0,-0.95 0.77,-1.71 1.71,-1.71z"/>
   <path class="fil1" d="M1.71 28.58c0.47,0 0.86,0.38 0.86,0.86 0,0.47 -0.38,0.86 -0.86,0.86 -0.47,0 -0.86,-0.38 -0.86,-0.86 0,-0.47 0.38,-0.86 0.86,-0.86z"/>
   <path class="fil1" d="M1.71 13.58c0.95,0 1.71,0.77 1.71,1.71 0,0.95 -0.77,1.71 -1.71,1.71 -0.95,0 -1.71,-0.77 -1.71,-1.71 0,-0.95 0.77,-1.71 1.71,-1.71z"/>
   <path class="fil1" d="M1.71 36.71c0.95,0 1.71,0.77 1.71,1.71 0,0.95 -0.77,1.71 -1.71,1.71 -0.95,0 -1.71,-0.77 -1.71,-1.71 0,-0.95 0.77,-1.71 1.71,-1.71z"/>
   <path class="fil1" d="M1.71 46.99c0.95,0 1.71,0.77 1.71,1.71 0,0.95 -0.77,1.71 -1.71,1.71 -0.95,0 -1.71,-0.77 -1.71,-1.71 0,-0.95 0.77,-1.71 1.71,-1.71z"/>
   <path class="fil1" d="M6.85 18.72c0.95,0 1.71,0.77 1.71,1.71 0,0.95 -0.77,1.71 -1.71,1.71 -0.95,0 -1.71,-0.77 -1.71,-1.71 0,-0.95 0.77,-1.71 1.71,-1.71z"/>
   <path class="fil1" d="M6.85 28.58c0.47,0 0.86,0.38 0.86,0.86 0,0.47 -0.38,0.86 -0.86,0.86 -0.47,0 -0.86,-0.38 -0.86,-0.86 0,-0.47 0.38,-0.86 0.86,-0.86z"/>
   <path class="fil1" d="M6.85 13.58c0.95,0 1.71,0.77 1.71,1.71 0,0.95 -0.77,1.71 -1.71,1.71 -0.95,0 -1.71,-0.77 -1.71,-1.71 0,-0.95 0.77,-1.71 1.71,-1.71z"/>
   <path class="fil1" d="M6.85 46.99c0.95,0 1.71,0.77 1.71,1.71 0,0.95 -0.77,1.71 -1.71,1.71 -0.95,0 -1.71,-0.77 -1.71,-1.71 0,-0.95 0.77,-1.71 1.71,-1.71z"/>
   <path class="fil1" d="M6.85 52.13c0.95,0 1.71,0.77 1.71,1.71 0,0.95 -0.77,1.71 -1.71,1.71 -0.95,0 -1.71,-0.77 -1.71,-1.71 0,-0.95 0.77,-1.71 1.71,-1.71z"/>
   <path class="fil1" d="M17.13 28.58c0.47,0 0.86,0.38 0.86,0.86 0,0.47 -0.38,0.86 -0.86,0.86 -0.47,0 -0.86,-0.38 -0.86,-0.86 0,-0.47 0.38,-0.86 0.86,-0.86z"/>
   <path class="fil1" d="M17.13 13.58c0.95,0 1.71,0.77 1.71,1.71 0,0.95 -0.77,1.71 -1.71,1.71 -0.95,0 -1.71,-0.77 -1.71,-1.71 0,-0.95 0.77,-1.71 1.71,-1.71z"/>
   <path class="fil1" d="M17.13 36.71c0.95,0 1.71,0.77 1.71,1.71 0,0.95 -0.77,1.71 -1.71,1.71 -0.95,0 -1.71,-0.77 -1.71,-1.71 0,-0.95 0.77,-1.71 1.71,-1.71z"/>
   <path class="fil1" d="M17.13 46.99c0.95,0 1.71,0.77 1.71,1.71 0,0.95 -0.77,1.71 -1.71,1.71 -0.95,0 -1.71,-0.77 -1.71,-1.71 0,-0.95 0.77,-1.71 1.71,-1.71z"/>
   <path class="fil1" d="M17.13 23.86c0.95,0 1.71,0.77 1.71,1.71 0,0.95 -0.77,1.71 -1.71,1.71 -0.95,0 -1.71,-0.77 -1.71,-1.71 0,-0.95 0.77,-1.71 1.71,-1.71z"/>
   <path class="fil1" d="M22.27 28.58c0.47,0 0.86,0.38 0.86,0.86 0,0.47 -0.38,0.86 -0.86,0.86 -0.47,0 -0.86,-0.38 -0.86,-0.86 0,-0.47 0.38,-0.86 0.86,-0.86z"/>
   <path class="fil1" d="M22.27 13.58c0.95,0 1.71,0.77 1.71,1.71 0,0.95 -0.77,1.71 -1.71,1.71 -0.95,0 -1.71,-0.77 -1.71,-1.71 0,-0.95 0.77,-1.71 1.71,-1.71z"/>
   <path class="fil1" d="M22.27 46.99c0.95,0 1.71,0.77 1.71,1.71 0,0.95 -0.77,1.71 -1.71,1.71 -0.95,0 -1.71,-0.77 -1.71,-1.71 0,-0.95 0.77,-1.71 1.71,-1.71z"/>
   <path class="fil1" d="M22.27 23.86c0.95,0 1.71,0.77 1.71,1.71 0,0.95 -0.77,1.71 -1.71,1.71 -0.95,0 -1.71,-0.77 -1.71,-1.71 0,-0.95 0.77,-1.71 1.71,-1.71z"/>
   <path class="fil1" d="M22.27 31.57c0.95,0 1.71,0.77 1.71,1.71 0,0.95 -0.77,1.71 -1.71,1.71 -0.95,0 -1.71,-0.77 -1.71,-1.71 0,-0.95 0.77,-1.71 1.71,-1.71z"/>
   <path class="fil1" d="M27.41 18.72c0.95,0 1.71,0.77 1.71,1.71 0,0.95 -0.77,1.71 -1.71,1.71 -0.95,0 -1.71,-0.77 -1.71,-1.71 0,-0.95 0.77,-1.71 1.71,-1.71z"/>
   <path class="fil1" d="M27.41 28.58c0.47,0 0.86,0.38 0.86,0.86 0,0.47 -0.38,0.86 -0.86,0.86 -0.47,0 -0.86,-0.38 -0.86,-0.86 0,-0.47 0.38,-0.86 0.86,-0.86z"/>
   <path class="fil1" d="M27.41 46.99c0.95,0 1.71,0.77 1.71,1.71 0,0.95 -0.77,1.71 -1.71,1.71 -0.95,0 -1.71,-0.77 -1.71,-1.71 0,-0.95 0.77,-1.71 1.71,-1.71z"/>
   <path class="fil1" d="M32.55 28.58c0.47,0 0.86,0.38 0.86,0.86 0,0.47 -0.38,0.86 -0.86,0.86 -0.47,0 -0.86,-0.38 -0.86,-0.86 0,-0.47 0.38,-0.86 0.86,-0.86z"/>
   <path class="fil1" d="M32.55 13.58c0.95,0 1.71,0.77 1.71,1.71 0,0.95 -0.77,1.71 -1.71,1.71 -0.95,0 -1.71,-0.77 -1.71,-1.71 0,-0.95 0.77,-1.71 1.71,-1.71z"/>
   <path class="fil1" d="M32.55 46.99c0.95,0 1.71,0.77 1.71,1.71 0,0.95 -0.77,1.71 -1.71,1.71 -0.95,0 -1.71,-0.77 -1.71,-1.71 0,-0.95 0.77,-1.71 1.71,-1.71z"/>
   <path class="fil1" d="M32.55 31.57c0.95,0 1.71,0.77 1.71,1.71 0,0.95 -0.77,1.71 -1.71,1.71 -0.95,0 -1.71,-0.77 -1.71,-1.71 0,-0.95 0.77,-1.71 1.71,-1.71z"/>
   <path class="fil1" d="M32.55 52.13c0.95,0 1.71,0.77 1.71,1.71 0,0.95 -0.77,1.71 -1.71,1.71 -0.95,0 -1.71,-0.77 -1.71,-1.71 0,-0.95 0.77,-1.71 1.71,-1.71z"/>
   <path class="fil1" d="M37.69 28.58c0.47,0 0.86,0.38 0.86,0.86 0,0.47 -0.38,0.86 -0.86,0.86 -0.47,0 -0.86,-0.38 -0.86,-0.86 0,-0.47 0.38,-0.86 0.86,-0.86z"/>
   <path class="fil1" d="M37.69 36.71c0.95,0 1.71,0.77 1.71,1.71 0,0.95 -0.77,1.71 -1.71,1.71 -0.95,0 -1.71,-0.77 -1.71,-1.71 0,-0.95 0.77,-1.71 1.71,-1.71z"/>
   <path class="fil1" d="M37.69 46.99c0.95,0 1.71,0.77 1.71,1.71 0,0.95 -0.77,1.71 -1.71,1.71 -0.95,0 -1.71,-0.77 -1.71,-1.71 0,-0.95 0.77,-1.71 1.71,-1.71z"/>
   <path class="fil1" d="M37.69 23.86c0.95,0 1.71,0.77 1.71,1.71 0,0.95 -0.77,1.71 -1.71,1.71 -0.95,0 -1.71,-0.77 -1.71,-1.71 0,-0.95 0.77,-1.71 1.71,-1.71z"/>
   <path class="fil1" d="M37.69 52.13c0.95,0 1.71,0.77 1.71,1.71 0,0.95 -0.77,1.71 -1.71,1.71 -0.95,0 -1.71,-0.77 -1.71,-1.71 0,-0.95 0.77,-1.71 1.71,-1.71z"/>
   <path class="fil1" d="M42.83 18.72c0.95,0 1.71,0.77 1.71,1.71 0,0.95 -0.77,1.71 -1.71,1.71 -0.95,0 -1.71,-0.77 -1.71,-1.71 0,-0.95 0.77,-1.71 1.71,-1.71z"/>
   <path class="fil1" d="M42.83 28.58c0.47,0 0.86,0.38 0.86,0.86 0,0.47 -0.38,0.86 -0.86,0.86 -0.47,0 -0.86,-0.38 -0.86,-0.86 0,-0.47 0.38,-0.86 0.86,-0.86z"/>
   <path class="fil1" d="M42.83 13.58c0.95,0 1.71,0.77 1.71,1.71 0,0.95 -0.77,1.71 -1.71,1.71 -0.95,0 -1.71,-0.77 -1.71,-1.71 0,-0.95 0.77,-1.71 1.71,-1.71z"/>
   <path class="fil1" d="M42.83 36.71c0.95,0 1.71,0.77 1.71,1.71 0,0.95 -0.77,1.71 -1.71,1.71 -0.95,0 -1.71,-0.77 -1.71,-1.71 0,-0.95 0.77,-1.71 1.71,-1.71z"/>
   <path class="fil1" d="M42.83 46.99c0.95,0 1.71,0.77 1.71,1.71 0,0.95 -0.77,1.71 -1.71,1.71 -0.95,0 -1.71,-0.77 -1.71,-1.71 0,-0.95 0.77,-1.71 1.71,-1.71z"/>
  </g>
 </g>
</svg>
