<?xml version="1.0" encoding="utf-8"?>
<svg width="17.1547mm" height="21.3434mm" version="1.1" style="shape-rendering:geometricPrecision; text-rendering:geometricPrecision; image-rendering:optimizeQuality; fill-rule:evenodd; clip-rule:evenodd" viewBox="0 0 44.66 42.5" preserveAspectRatio="xMidYMid slice" xmlns="http://www.w3.org/2000/svg">
  <defs>
    <style type="text/css">
   
    .fil0 {fill:#5B5B5B}
    .fil1 {fill:#E31E24}
   
  </style>
  </defs>
  <g id="Warstwa_x0020_1" transform="matrix(1, 0, 0, 1, 0, -7.189074)">
    <g id="_3013424563968">
      <path class="fil1" d="M 12.034 12.64 C 12.984 12.64 13.744 13.41 13.744 14.35 C 13.744 15.3 12.974 16.06 12.034 16.06 C 11.084 16.06 10.324 15.29 10.324 14.35 C 10.324 13.4 11.094 12.64 12.034 12.64 L 12.034 12.64 Z"/>
      <path class="fil1" d="M 12.034 22.5 C 12.504 22.5 12.894 22.88 12.894 23.36 C 12.894 23.83 12.514 24.22 12.034 24.22 C 11.564 24.22 11.174 23.84 11.174 23.36 C 11.174 22.89 11.554 22.5 12.034 22.5 Z"/>
      <path class="fil1" d="M 12.034 30.63 C 12.984 30.63 13.744 31.4 13.744 32.34 C 13.744 33.29 12.974 34.05 12.034 34.05 C 11.084 34.05 10.324 33.28 10.324 32.34 C 10.324 31.39 11.094 30.63 12.034 30.63 L 12.034 30.63 Z"/>
      <path class="fil1" d="M 12.034 40.91 C 12.984 40.91 13.744 41.68 13.744 42.62 C 13.744 43.57 12.974 44.33 12.034 44.33 C 11.084 44.33 10.324 43.56 10.324 42.62 C 10.324 41.67 11.094 40.91 12.034 40.91 L 12.034 40.91 Z"/>
      <path class="fil1" d="M 12.034 46.05 C 12.984 46.05 13.744 46.82 13.744 47.76 C 13.744 48.71 12.974 49.47 12.034 49.47 C 11.084 49.47 10.324 48.7 10.324 47.76 C 10.324 46.81 11.094 46.05 12.034 46.05 L 12.034 46.05 Z"/>
      <path class="fil1" d="M 1.754 12.64 C 2.704 12.64 3.464 13.41 3.464 14.35 C 3.464 15.3 2.694 16.06 1.754 16.06 C 0.804 16.06 0.044 15.29 0.044 14.35 C 0.044 13.4 0.814 12.64 1.754 12.64 Z"/>
      <path class="fil1" d="M 1.754 22.5 C 2.224 22.5 2.614 22.88 2.614 23.36 C 2.614 23.83 2.234 24.22 1.754 24.22 C 1.284 24.22 0.894 23.84 0.894 23.36 C 0.894 22.89 1.274 22.5 1.754 22.5 L 1.754 22.5 Z"/>
      <path class="fil1" d="M 1.754 7.5 C 2.704 7.5 3.464 8.27 3.464 9.21 C 3.464 10.16 2.694 10.92 1.754 10.92 C 0.804 10.92 0.044 10.15 0.044 9.21 C 0.044 8.26 0.814 7.5 1.754 7.5 L 1.754 7.5 Z"/>
      <path class="fil1" d="M 1.754 30.63 C 2.704 30.63 3.464 31.4 3.464 32.34 C 3.464 33.29 2.694 34.05 1.754 34.05 C 0.804 34.05 0.044 33.28 0.044 32.34 C 0.044 31.39 0.814 30.63 1.754 30.63 Z"/>
      <path class="fil1" d="M 1.754 40.91 C 2.704 40.91 3.464 41.68 3.464 42.62 C 3.464 43.57 2.694 44.33 1.754 44.33 C 0.804 44.33 0.044 43.56 0.044 42.62 C 0.044 41.67 0.814 40.91 1.754 40.91 Z"/>
      <path class="fil1" d="M 6.894 12.64 C 7.844 12.64 8.604 13.41 8.604 14.35 C 8.604 15.3 7.834 16.06 6.894 16.06 C 5.944 16.06 5.184 15.29 5.184 14.35 C 5.184 13.4 5.954 12.64 6.894 12.64 L 6.894 12.64 Z"/>
      <path class="fil1" d="M 6.894 22.5 C 7.364 22.5 7.754 22.88 7.754 23.36 C 7.754 23.83 7.374 24.22 6.894 24.22 C 6.424 24.22 6.034 23.84 6.034 23.36 C 6.034 22.89 6.414 22.5 6.894 22.5 Z"/>
      <path class="fil1" d="M 6.894 7.5 C 7.844 7.5 8.604 8.27 8.604 9.21 C 8.604 10.16 7.834 10.92 6.894 10.92 C 5.944 10.92 5.184 10.15 5.184 9.21 C 5.184 8.26 5.954 7.5 6.894 7.5 L 6.894 7.5 Z"/>
      <path class="fil1" d="M 6.894 40.91 C 7.844 40.91 8.604 41.68 8.604 42.62 C 8.604 43.57 7.834 44.33 6.894 44.33 C 5.944 44.33 5.184 43.56 5.184 42.62 C 5.184 41.67 5.954 40.91 6.894 40.91 L 6.894 40.91 Z"/>
      <path class="fil1" d="M 6.894 46.05 C 7.844 46.05 8.604 46.82 8.604 47.76 C 8.604 48.71 7.834 49.47 6.894 49.47 C 5.944 49.47 5.184 48.7 5.184 47.76 C 5.184 46.81 5.954 46.05 6.894 46.05 L 6.894 46.05 Z"/>
      <path class="fil1" d="M 17.174 22.5 C 17.644 22.5 18.034 22.88 18.034 23.36 C 18.034 23.83 17.654 24.22 17.174 24.22 C 16.704 24.22 16.314 23.84 16.314 23.36 C 16.314 22.89 16.694 22.5 17.174 22.5 Z"/>
      <path class="fil1" d="M 17.174 7.5 C 18.124 7.5 18.884 8.27 18.884 9.21 C 18.884 10.16 18.114 10.92 17.174 10.92 C 16.224 10.92 15.464 10.15 15.464 9.21 C 15.464 8.26 16.234 7.5 17.174 7.5 L 17.174 7.5 Z"/>
      <path class="fil1" d="M 17.174 30.63 C 18.124 30.63 18.884 31.4 18.884 32.34 C 18.884 33.29 18.114 34.05 17.174 34.05 C 16.224 34.05 15.464 33.28 15.464 32.34 C 15.464 31.39 16.234 30.63 17.174 30.63 Z"/>
      <path class="fil1" d="M 17.174 40.91 C 18.124 40.91 18.884 41.68 18.884 42.62 C 18.884 43.57 18.114 44.33 17.174 44.33 C 16.224 44.33 15.464 43.56 15.464 42.62 C 15.464 41.67 16.234 40.91 17.174 40.91 Z"/>
      <path class="fil1" d="M 17.174 17.78 C 18.124 17.78 18.884 18.55 18.884 19.49 C 18.884 20.44 18.114 21.2 17.174 21.2 C 16.224 21.2 15.464 20.43 15.464 19.49 C 15.464 18.54 16.234 17.78 17.174 17.78 Z"/>
      <path class="fil1" d="M 22.314 22.5 C 22.784 22.5 23.174 22.88 23.174 23.36 C 23.174 23.83 22.794 24.22 22.314 24.22 C 21.844 24.22 21.454 23.84 21.454 23.36 C 21.454 22.89 21.834 22.5 22.314 22.5 Z"/>
      <path class="fil1" d="M 22.314 7.5 C 23.264 7.5 24.024 8.27 24.024 9.21 C 24.024 10.16 23.254 10.92 22.314 10.92 C 21.364 10.92 20.604 10.15 20.604 9.21 C 20.604 8.26 21.374 7.5 22.314 7.5 L 22.314 7.5 Z"/>
      <path class="fil1" d="M 22.314 40.91 C 23.264 40.91 24.024 41.68 24.024 42.62 C 24.024 43.57 23.254 44.33 22.314 44.33 C 21.364 44.33 20.604 43.56 20.604 42.62 C 20.604 41.67 21.374 40.91 22.314 40.91 Z"/>
      <path class="fil1" d="M 22.314 17.78 C 23.264 17.78 24.024 18.55 24.024 19.49 C 24.024 20.44 23.254 21.2 22.314 21.2 C 21.364 21.2 20.604 20.43 20.604 19.49 C 20.604 18.54 21.374 17.78 22.314 17.78 Z"/>
      <path class="fil1" d="M 22.314 25.49 C 23.264 25.49 24.024 26.26 24.024 27.2 C 24.024 28.15 23.254 28.91 22.314 28.91 C 21.364 28.91 20.604 28.14 20.604 27.2 C 20.604 26.25 21.374 25.49 22.314 25.49 Z"/>
      <path class="fil1" d="M 27.454 12.64 C 28.404 12.64 29.164 13.41 29.164 14.35 C 29.164 15.3 28.394 16.06 27.454 16.06 C 26.504 16.06 25.744 15.29 25.744 14.35 C 25.744 13.4 26.514 12.64 27.454 12.64 Z"/>
      <path class="fil1" d="M 27.454 22.5 C 27.924 22.5 28.314 22.88 28.314 23.36 C 28.314 23.83 27.934 24.22 27.454 24.22 C 26.984 24.22 26.594 23.84 26.594 23.36 C 26.594 22.89 26.974 22.5 27.454 22.5 Z"/>
      <path class="fil1" d="M 27.454 40.91 C 28.404 40.91 29.164 41.68 29.164 42.62 C 29.164 43.57 28.394 44.33 27.454 44.33 C 26.504 44.33 25.744 43.56 25.744 42.62 C 25.744 41.67 26.514 40.91 27.454 40.91 Z"/>
      <path class="fil1" d="M 32.594 22.5 C 33.064 22.5 33.454 22.88 33.454 23.36 C 33.454 23.83 33.074 24.22 32.594 24.22 C 32.124 24.22 31.734 23.84 31.734 23.36 C 31.734 22.89 32.114 22.5 32.594 22.5 Z"/>
      <path class="fil1" d="M 32.594 7.5 C 33.544 7.5 34.304 8.27 34.304 9.21 C 34.304 10.16 33.534 10.92 32.594 10.92 C 31.644 10.92 30.884 10.15 30.884 9.21 C 30.884 8.26 31.654 7.5 32.594 7.5 L 32.594 7.5 Z"/>
      <path class="fil1" d="M 32.594 40.91 C 33.544 40.91 34.304 41.68 34.304 42.62 C 34.304 43.57 33.534 44.33 32.594 44.33 C 31.644 44.33 30.884 43.56 30.884 42.62 C 30.884 41.67 31.654 40.91 32.594 40.91 Z"/>
      <path class="fil1" d="M 32.594 25.49 C 33.544 25.49 34.304 26.26 34.304 27.2 C 34.304 28.15 33.534 28.91 32.594 28.91 C 31.644 28.91 30.884 28.14 30.884 27.2 C 30.884 26.25 31.654 25.49 32.594 25.49 Z"/>
      <path class="fil1" d="M 32.594 46.05 C 33.544 46.05 34.304 46.82 34.304 47.76 C 34.304 48.71 33.534 49.47 32.594 49.47 C 31.644 49.47 30.884 48.7 30.884 47.76 C 30.884 46.81 31.654 46.05 32.594 46.05 Z"/>
      <path class="fil1" d="M 37.734 22.5 C 38.204 22.5 38.594 22.88 38.594 23.36 C 38.594 23.83 38.214 24.22 37.734 24.22 C 37.264 24.22 36.874 23.84 36.874 23.36 C 36.874 22.89 37.254 22.5 37.734 22.5 Z"/>
      <path class="fil1" d="M 37.734 30.63 C 38.684 30.63 39.444 31.4 39.444 32.34 C 39.444 33.29 38.674 34.05 37.734 34.05 C 36.784 34.05 36.024 33.28 36.024 32.34 C 36.024 31.39 36.794 30.63 37.734 30.63 Z"/>
      <path class="fil1" d="M 37.734 40.91 C 38.684 40.91 39.444 41.68 39.444 42.62 C 39.444 43.57 38.674 44.33 37.734 44.33 C 36.784 44.33 36.024 43.56 36.024 42.62 C 36.024 41.67 36.794 40.91 37.734 40.91 Z"/>
      <path class="fil1" d="M 37.734 17.78 C 38.684 17.78 39.444 18.55 39.444 19.49 C 39.444 20.44 38.674 21.2 37.734 21.2 C 36.784 21.2 36.024 20.43 36.024 19.49 C 36.024 18.54 36.794 17.78 37.734 17.78 Z"/>
      <path class="fil1" d="M 37.734 46.05 C 38.684 46.05 39.444 46.82 39.444 47.76 C 39.444 48.71 38.674 49.47 37.734 49.47 C 36.784 49.47 36.024 48.7 36.024 47.76 C 36.024 46.81 36.794 46.05 37.734 46.05 Z"/>
      <path class="fil1" d="M 42.874 12.64 C 43.824 12.64 44.584 13.41 44.584 14.35 C 44.584 15.3 43.814 16.06 42.874 16.06 C 41.924 16.06 41.164 15.29 41.164 14.35 C 41.164 13.4 41.934 12.64 42.874 12.64 Z"/>
      <path class="fil1" d="M 42.874 22.5 C 43.344 22.5 43.734 22.88 43.734 23.36 C 43.734 23.83 43.354 24.22 42.874 24.22 C 42.404 24.22 42.014 23.84 42.014 23.36 C 42.014 22.89 42.394 22.5 42.874 22.5 Z"/>
      <path class="fil1" d="M 42.874 7.5 C 43.824 7.5 44.584 8.27 44.584 9.21 C 44.584 10.16 43.814 10.92 42.874 10.92 C 41.924 10.92 41.164 10.15 41.164 9.21 C 41.164 8.26 41.934 7.5 42.874 7.5 L 42.874 7.5 Z"/>
      <path class="fil1" d="M 42.874 30.63 C 43.824 30.63 44.584 31.4 44.584 32.34 C 44.584 33.29 43.814 34.05 42.874 34.05 C 41.924 34.05 41.164 33.28 41.164 32.34 C 41.164 31.39 41.934 30.63 42.874 30.63 Z"/>
      <path class="fil1" d="M 42.874 40.91 C 43.824 40.91 44.584 41.68 44.584 42.62 C 44.584 43.57 43.814 44.33 42.874 44.33 C 41.924 44.33 41.164 43.56 41.164 42.62 C 41.164 41.67 41.934 40.91 42.874 40.91 Z"/>
    </g>
  </g>
</svg>